<svg xmlns="http://www.w3.org/2000/svg" id="Layer_2" viewBox="0 0 937.47 152.27"><defs><style>.cls-1{fill:#80c926;}.cls-1,.cls-2{stroke-width:0px;}.cls-2{fill:#fff;}</style></defs><g id="Layer_5"><path class="cls-2" d="M327.42,111.24c-3.85,3.96-11.88,10.34-27.39,10.34-22.33,0-39.82-14.74-39.82-39.16s17.71-39.16,39.82-39.16c15.62,0,24.09,6.49,26.07,8.58l-5.5,14.74c-1.43-1.87-9.57-7.92-19.58-7.92-12.87,0-22.77,8.58-22.77,23.43s10.34,23.32,22.77,23.32c9.46,0,16.28-3.74,20.46-8.03l5.94,13.86Z"></path><path class="cls-2" d="M374.17,121.58c-22.55,0-40.26-14.63-40.26-39.16s17.71-39.27,40.26-39.27,40.26,14.74,40.26,39.27-17.71,39.16-40.26,39.16ZM374.17,58.33c-12.65,0-22.22,9.13-22.22,23.65s9.57,23.76,22.22,23.76,22.22-9.24,22.22-23.76-9.57-23.65-22.22-23.65Z"></path><path class="cls-2" d="M483.84,111.24c-6.27,5.28-16.06,9.02-29.26,9.02h-25.74V44.36h25.74c13.2,0,22.99,3.74,29.26,9.13,6.38,5.28,12.32,14.08,12.32,28.82s-5.94,23.54-12.32,28.93ZM471.41,64.49c-3.19-2.97-8.47-5.39-15.84-5.39h-9.02v46.09h9.02c7.37,0,12.65-2.42,15.84-5.5,3.19-2.97,6.71-8.03,6.71-17.38s-3.52-14.74-6.71-17.82Z"></path><path class="cls-2" d="M560.73,120.26h-50.16V44.36h49.17v14.19h-31.46v15.51h29.7v14.19h-29.7v17.6h32.45v14.41Z"></path><path class="cls-2" d="M640.59,120.26h-20.68l-15.95-29.04h-5.61v29.04h-17.82V44.36h27.28c8.47,0,15.07,1.76,20.02,5.39,5.06,3.74,8.36,9.79,8.36,17.38,0,14.41-9.24,20.02-14.85,21.78l19.25,31.35ZM614.41,60.09c-2.2-1.65-5.06-1.98-9.13-1.98h-7.04v19.47h7.04c4.07,0,6.93-.44,9.13-2.09,2.31-1.65,3.85-3.74,3.85-7.7s-1.54-6.05-3.85-7.7Z"></path><path class="cls-2" d="M702.3,86.49c-5.06,4.18-11.99,5.72-19.8,5.72h-9.35v28.05h-17.82V44.36h27.17c7.81,0,14.74,1.54,19.8,5.72s7.92,10.01,7.92,18.15-2.86,13.97-7.92,18.26ZM688.55,60.2c-2.2-1.54-4.73-2.09-8.58-2.09h-6.93v20.35h6.93c3.85,0,6.38-.55,8.58-2.09,2.09-1.54,3.63-4.29,3.63-8.14s-1.54-6.49-3.63-8.03Z"></path><path class="cls-2" d="M786.34,88.58c0,10.67-1.87,18.04-7.26,23.87-5.28,5.72-13.53,9.02-24.53,9.02s-19.25-3.3-24.64-9.02c-5.28-5.83-7.15-13.2-7.15-23.87v-44.22h17.93v44.22c0,5.39.44,9.57,2.97,12.65,2.42,2.86,5.94,4.73,10.89,4.73s8.47-1.87,10.89-4.73c2.53-3.08,2.97-7.26,2.97-12.65v-44.22h17.93v44.22Z"></path><path class="cls-2" d="M846.39,115.31c-5.39,4.29-12.43,6.27-20.57,6.27-11,0-20.79-5.72-26.95-11.44l8.8-12.98c5.5,5.72,13.97,9.57,19.8,9.57s10.12-2.75,10.12-7.81-5.61-7.15-8.91-8.36c-3.3-1.21-9.02-3.19-11.55-4.29-1.87-.88-5.72-2.31-9.02-5.5-3.3-3.08-5.94-7.48-5.94-14.63s3.52-12.98,7.92-16.61c4.29-3.63,11.22-6.05,20.02-6.05s18.92,4.18,24.09,9.35l-7.59,12.43c-4.4-4.4-11.22-7.7-16.94-7.7s-9.9,2.2-9.9,6.82,4.29,6.38,7.7,7.7c3.3,1.32,8.91,3.3,11.33,4.29,2.09.77,7.15,2.75,10.56,6.16,3.19,3.19,5.94,7.81,5.94,14.63,0,7.26-3.41,13.86-8.91,18.15Z"></path><path class="cls-2" d="M937.47,120.26h-17.82v-31.79h-30.47v31.79h-17.82V44.36h17.82v29.37h30.47v-29.37h17.82v75.9Z"></path><path class="cls-1" d="M70.09,118.86c-1.35,1.22-2.83,2.32-4.47,3.27-12.4,7.16-28.31,2.89-35.46-9.5-7.16-12.4-2.89-28.31,9.5-35.46,10.52-6.07,23.55-3.92,31.64,4.43l1-30.76c-14.49-5.82-31.4-5.18-45.97,3.23C1.15,68.6-7.47,100.78,7.06,125.95c12.69,21.98,38.84,31.34,62.03,23.68l1-30.78Z"></path><path class="cls-2" d="M113.15,7.06c-17.42,10.06-26.91,28.57-26.29,47.36h-.1s-2.2,90.69-2.2,90.69l27.05-15.62,1.79-73.6.21-.93c-.86-9.75,3.85-19.59,12.87-24.79,12.4-7.16,28.31-2.89,35.46,9.5s2.89,28.31-9.5,35.46c-9.32,5.38-20.63,4.31-28.71-1.83l-.71,29.33c13.73,4.51,29.25,3.39,42.75-4.41,25.17-14.53,33.8-46.72,19.26-71.89C170.51,1.15,138.33-7.47,113.15,7.06Z"></path></g></svg>